<svg xmlns="http://www.w3.org/2000/svg" viewBox="0 0 155.6515 35.0788"><defs><style>.a{fill:#fff;}.b{fill:#42a5f5;}</style></defs><title>facilitron-logo-reversed</title><path class="a" d="M48.8009,10.3164v2.0791a5.1787,5.1787,0,0,0-1.9864-.501,1.9194,1.9194,0,0,0-1.0234.25,1.1054,1.1054,0,0,0-.5117.5767,8.0454,8.0454,0,0,0-.1055,1.7383l-.0015,2.2309H48.59v1.8364H45.171l-.0117,14.6768h-2.107V18.5273H40.9005V16.6909h2.1518v-2.58a7.057,7.057,0,0,1,.3233-2.5346,2.5991,2.5991,0,0,1,1.0986-1.2222,3.5945,3.5945,0,0,1,1.8735-.4629A8.8425,8.8425,0,0,1,48.8009,10.3164Z"/><path class="a" d="M65.7364,16.6909V33.2041H63.66V30.3662A9.06,9.06,0,0,1,60.6876,32.81a8.2493,8.2493,0,0,1-9.5405-1.7227,8.56,8.56,0,0,1-2.4605-6.1846A8.4045,8.4045,0,0,1,51.17,18.8008a8.0629,8.0629,0,0,1,5.9741-2.5347,7.6745,7.6745,0,0,1,3.65.8648A8.3372,8.3372,0,0,1,63.66,19.7266V16.6909Zm-8.42,1.6236a6.3445,6.3445,0,0,0-5.6138,3.32,6.7409,6.7409,0,0,0,.0073,6.6709,6.4828,6.4828,0,0,0,2.3824,2.4785,6.1805,6.1805,0,0,0,3.2094.8867,6.538,6.538,0,0,0,3.2769-.8789,6.129,6.129,0,0,0,2.3823-2.38,6.8466,6.8466,0,0,0,.834-3.3808A6.6035,6.6035,0,0,0,61.9239,20.24,6.1756,6.1756,0,0,0,57.3165,18.3145Z"/><path class="a" d="M84.0557,20.1211l-1.67,1.0469A6.9766,6.9766,0,0,0,76.4786,18.27,6.8021,6.8021,0,0,0,71.5108,20.21a6.3612,6.3612,0,0,0-1.9765,4.7148,6.7318,6.7318,0,0,0,.91,3.3955A6.3967,6.3967,0,0,0,72.939,30.792a7.5017,7.5017,0,0,0,9.4468-2.02l1.67,1.1074a7.907,7.907,0,0,1-3.1523,2.7666,9.9966,9.9966,0,0,1-4.5068.9824,8.86,8.86,0,0,1-6.441-2.4893,8.13,8.13,0,0,1-2.5581-6.0556A8.7077,8.7077,0,0,1,68.5938,20.63a8.47,8.47,0,0,1,3.2881-3.211,9.5331,9.5331,0,0,1,4.68-1.1528,9.9084,9.9084,0,0,1,3.1377.5,8.6967,8.6967,0,0,1,2.5664,1.3057A7.0651,7.0651,0,0,1,84.0557,20.1211Z"/><path class="a" d="M87.2931,9.8911a1.6637,1.6637,0,0,1,1.2285.5161,1.7072,1.7072,0,0,1,.51,1.2447,1.6886,1.6886,0,0,1-.51,1.2294,1.7026,1.7026,0,0,1-2.4424,0,1.6913,1.6913,0,0,1-.5088-1.2294,1.71,1.71,0,0,1,.5088-1.2447A1.6483,1.6483,0,0,1,87.2931,9.8911Zm-1.0459,6.8h2.1074V33.2041H86.2472Z"/><path class="a" d="M91.6466,10.3164H93.754V33.2041H91.6466Z"/><path class="a" d="M98.0919,9.8911a1.6635,1.6635,0,0,1,1.2285.5161,1.7072,1.7072,0,0,1,.51,1.2447,1.6887,1.6887,0,0,1-.51,1.2294,1.7026,1.7026,0,0,1-2.4424,0,1.6913,1.6913,0,0,1-.5088-1.2294,1.71,1.71,0,0,1,.5088-1.2447A1.6487,1.6487,0,0,1,98.0919,9.8911Zm-1.0459,6.8h2.1074V33.2041H97.046Z"/><path class="a" d="M103.8272,10.5591h2.1065v6.1318h3.3408v1.8364h-3.3408V33.2041h-2.1065V18.5273h-2.874V16.6909h2.874Z"/><path class="a" d="M110.8663,16.6909h2.1523v2.4136a7.5926,7.5926,0,0,1,2.0313-2.1328,3.9794,3.9794,0,0,1,2.2275-.7056,3.8171,3.8171,0,0,1,1.8653.5615l-1.0977,1.7906a2.9325,2.9325,0,0,0-1.1143-.2881,3.0323,3.0323,0,0,0-2.0312.873,5.5338,5.5338,0,0,0-1.49,2.709,26.2128,26.2128,0,0,0-.3907,5.707v5.585h-2.1523Z"/><path class="a" d="M126.2188,16.2661a8.079,8.079,0,0,1,6.2715,2.7622,8.922,8.922,0,0,1-.1289,12.0127,8.6025,8.6025,0,0,1-12.3008,0,8.9019,8.9019,0,0,1-.1279-11.998A8.0729,8.0729,0,0,1,126.2188,16.2661Zm-.0078,2.08a6.0556,6.0556,0,0,0-4.5156,1.957,6.5773,6.5773,0,0,0-1.8877,4.7354,6.76,6.76,0,0,0,.8613,3.34,6.1273,6.1273,0,0,0,2.3252,2.3907,6.5671,6.5671,0,0,0,6.4336,0,6.126,6.126,0,0,0,2.3252-2.3907,6.76,6.76,0,0,0,.8613-3.34,6.56,6.56,0,0,0-1.8955-4.7354A6.0617,6.0617,0,0,0,126.211,18.3457Z"/><path class="a" d="M136.7989,16.6909h2.1065v2.96a8.8433,8.8433,0,0,1,2.7988-2.542,6.8347,6.8347,0,0,1,3.3408-.8423,5.77,5.77,0,0,1,3.2588.9409,5.592,5.592,0,0,1,2.0986,2.5342,13.5144,13.5144,0,0,1,.6778,4.9639v8.499h-2.1075v-7.877a19.5818,19.5818,0,0,0-.2343-3.8095,3.8371,3.8371,0,0,0-4.1133-3.294A5.17,5.17,0,0,0,141.2,19.499a5.984,5.984,0,0,0-1.9942,3.1563,22.19,22.19,0,0,0-.3007,4.4931v6.0557h-2.1065Z"/><path class="a" d="M155.6515,17.5166a2.071,2.071,0,0,1-.6211,1.5127,2.1067,2.1067,0,0,1-2.9991,0,2.1486,2.1486,0,0,1,0-3.0239,2.11,2.11,0,0,1,2.9991,0A2.0676,2.0676,0,0,1,155.6515,17.5166Zm-.2823,0a1.8052,1.8052,0,0,0-.5381-1.3193,1.818,1.818,0,0,0-2.5966,0,1.8888,1.8888,0,0,0,0,2.6406,1.8168,1.8168,0,0,0,2.5966,0A1.8129,1.8129,0,0,0,155.3692,17.5166Zm-.62,1.0879h-.5566l-.6944-.8779h-.3008v.8779h-.4052V16.3418h.6845a2.9576,2.9576,0,0,1,.3643.0176.7246.7246,0,0,1,.27.0962.5453.5453,0,0,1,.2139.2031.622.622,0,0,1,.0654.3042.6.6,0,0,1-.1357.4053.9061.9061,0,0,1-.3545.247Zm-.8047-1.6148a.39.39,0,0,0-.0293-.1582.26.26,0,0,0-.1025-.1137.3746.3746,0,0,0-.1377-.0532,1.1809,1.1809,0,0,0-.1963-.0137h-.2813v.7641h.24a1.0012,1.0012,0,0,0,.2207-.0234.3621.3621,0,0,0,.166-.08.3438.3438,0,0,0,.0928-.1308A.5564.5564,0,0,0,153.9444,16.99Z"/><rect class="b" width="35.0783" height="35.0788" rx="2.083" ry="2.083"/><path class="a" d="M23.1191,3.3155c-3.66-.027-7.1294,3.5483-7.142,8.2185h0V16.48H12.8188c-4.1968,0-6.915,3.5358-6.915,8.22s3.3138,8.1963,6.982,8.1963,6.5857-3.5125,6.5857-8.1963h.0059V20.1315H26.03V16.48H19.4774V11.534h-.0035c.0127-2.509,1.6132-4.5462,3.5812-4.5462,1.9759,0,3.2086,2.0527,3.2086,4.5757h3.6775C29.9412,6.14,26.7924,3.3427,23.1191,3.3155ZM16.03,24.7c0,2.6-1.2357,4.5756-3.2116,4.5756s-3.344-2.1176-3.344-4.6405,1.2791-4.5108,3.8374-4.5108l-.4934.0075H16.03Z"/></svg>