<svg xmlns="http://www.w3.org/2000/svg" viewBox="0 0 216.2614 260.6989"><defs><style>.a{fill:#42a5f5;}.b{fill:#fff;}.c{fill:#fafafc;}</style></defs><title>facilitron-stacked-reversed</title><rect class="a" width="208.8371" height="208.8405" rx="12.4013" ry="12.4013"/><path class="b" d="M135.3561,19.7388c-21.7917-.161-42.4443,21.1247-42.5193,48.9283h0V98.1139H74.034c-24.9857,0-41.1684,21.05-41.1684,48.9346s19.7288,48.7963,41.5674,48.7963,39.2077-20.9116,39.2077-48.7963h.0351V119.8524h39.0119V98.1139H113.6757V68.6671h-.0212c.0758-14.9374,9.6042-27.0656,21.3206-27.0656,11.7635,0,19.1022,12.2208,19.1022,27.2411h21.8943C175.9715,36.5561,157.2251,19.9,135.3561,19.7388Zm-42.202,127.31c0,15.4789-7.3566,27.2411-19.12,27.2411s-19.9088-12.6072-19.9088-27.6276,7.6154-26.8546,22.8462-26.8546l-2.9374.0449h19.12Z"/><path class="c" d="M16.6991,217.3638v3.8648a9.6262,9.6262,0,0,0-3.6923-.9313,3.5683,3.5683,0,0,0-1.9024.4656,2.0549,2.0549,0,0,0-.9512,1.0719,14.9546,14.9546,0,0,0-.1961,3.2313l-.0027,4.1471H16.307v3.4137H9.9516L9.93,259.9092H6.0133V232.6269h-4v-3.4137h4v-4.796a13.1184,13.1184,0,0,1,.6009-4.7116,4.8317,4.8317,0,0,1,2.0422-2.2719,6.6817,6.6817,0,0,1,3.4827-.86A16.4358,16.4358,0,0,1,16.6991,217.3638Z"/><path class="c" d="M48.18,229.2133v30.696H44.32V254.634a16.8375,16.8375,0,0,1-5.5249,4.5419,14.8473,14.8473,0,0,1-6.6994,1.523A14.8016,14.8016,0,0,1,21.06,255.9737a15.9135,15.9135,0,0,1-4.5737-11.4964,15.6235,15.6235,0,0,1,4.6154-11.3421,14.9882,14.9882,0,0,1,11.1052-4.7116,14.2663,14.2663,0,0,1,6.7838,1.6075,15.4981,15.4981,0,0,1,5.3288,4.8251v-5.6429Zm-15.6516,3.018a11.7943,11.7943,0,0,0-10.4353,6.1721,12.53,12.53,0,0,0,.0136,12.4,12.05,12.05,0,0,0,4.4284,4.6073,11.4893,11.4893,0,0,0,5.966,1.6483,12.1528,12.1528,0,0,0,6.0913-1.6338,11.3936,11.3936,0,0,0,4.4284-4.4239,12.7279,12.7279,0,0,0,1.55-6.2846,12.2751,12.2751,0,0,0-3.4781-8.9059A11.48,11.48,0,0,0,32.5286,232.2312Z"/><path class="c" d="M82.2336,235.59l-3.1042,1.946a12.9687,12.9687,0,0,0-10.9808-5.3878,12.6442,12.6442,0,0,0-9.2345,3.607A11.8252,11.8252,0,0,0,55.24,244.519a12.5131,12.5131,0,0,0,1.691,6.3118,11.89,11.89,0,0,0,4.6381,4.5945,13.9446,13.9446,0,0,0,17.56-3.7541l3.1042,2.0586a14.6983,14.6983,0,0,1-5.86,5.1428,18.5834,18.5834,0,0,1-8.3777,1.8262,16.4686,16.4686,0,0,1-11.9729-4.6272,15.1127,15.1127,0,0,1-4.7552-11.2567,16.1852,16.1852,0,0,1,2.2238-8.28,15.742,15.742,0,0,1,6.1121-5.9687,17.7193,17.7193,0,0,1,8.699-2.143,18.42,18.42,0,0,1,5.8326.93,16.17,16.17,0,0,1,4.7706,2.4271A13.1365,13.1365,0,0,1,82.2336,235.59Z"/><path class="c" d="M88.2514,216.5733a3.0919,3.0919,0,0,1,2.2837.9594,3.1729,3.1729,0,0,1,.9476,2.3136,3.139,3.139,0,0,1-.9476,2.2855,3.1652,3.1652,0,0,1-4.54,0,3.1445,3.1445,0,0,1-.9458-2.2855,3.1784,3.1784,0,0,1,.9458-2.3136A3.0639,3.0639,0,0,1,88.2514,216.5733Zm-1.9442,12.64h3.9174v30.696H86.3072Z"/><path class="c" d="M96.344,217.3638h3.9174v42.5454H96.344Z"/><path class="c" d="M108.3251,216.5733a3.0919,3.0919,0,0,1,2.2837.9594,3.1729,3.1729,0,0,1,.9476,2.3136,3.139,3.139,0,0,1-.9476,2.2855,3.1652,3.1652,0,0,1-4.54,0,3.1445,3.1445,0,0,1-.9458-2.2855,3.1784,3.1784,0,0,1,.9458-2.3136A3.0639,3.0639,0,0,1,108.3251,216.5733Zm-1.9442,12.64h3.9174v30.696h-3.9174Z"/><path class="c" d="M118.9864,217.8149h3.9156v11.3983h6.21v3.4137h-6.21v27.2823h-3.9156V232.6269h-5.3425v-3.4137h5.3425Z"/><path class="c" d="M132.0711,229.2133h4.0009V233.7a14.1141,14.1141,0,0,1,3.7758-3.9646,7.3972,7.3972,0,0,1,4.1407-1.3116,7.0953,7.0953,0,0,1,3.4672,1.0438l-2.04,3.3284a5.4505,5.4505,0,0,0-2.0713-.5355,5.6367,5.6367,0,0,0-3.7758,1.6229,10.2852,10.2852,0,0,0-2.77,5.0357q-.727,2.6222-.7261,10.6087v10.3818h-4.0009Z"/><path class="c" d="M160.61,228.4236a15.0178,15.0178,0,0,1,11.6579,5.1346,16.5851,16.5851,0,0,1-.24,22.33,15.9909,15.9909,0,0,1-22.8656,0,16.5475,16.5475,0,0,1-.2378-22.3029A15.0069,15.0069,0,0,1,160.61,228.4236Zm-.0145,3.8657a11.2568,11.2568,0,0,0-8.394,3.6379,12.2261,12.2261,0,0,0-3.509,8.8024,12.5653,12.5653,0,0,0,1.6011,6.2084,11.389,11.389,0,0,0,4.3223,4.4439,12.2075,12.2075,0,0,0,11.9593,0,11.389,11.389,0,0,0,4.3223-4.4439,12.5653,12.5653,0,0,0,1.6011-6.2084,12.1944,12.1944,0,0,0-3.5235-8.8024A11.2684,11.2684,0,0,0,160.5951,232.2893Z"/><path class="c" d="M180.2767,229.2133h3.9156v5.5013a16.4412,16.4412,0,0,1,5.2027-4.7253,12.7045,12.7045,0,0,1,6.21-1.5657,10.7243,10.7243,0,0,1,6.0577,1.7491,10.3956,10.3956,0,0,1,3.9011,4.7107q1.258,2.9626,1.26,9.2272v15.7986h-3.9174V245.267a36.39,36.39,0,0,0-.4357-7.0815,7.1325,7.1325,0,0,0-7.6461-6.123,9.61,9.61,0,0,0-6.3663,2.3708,11.1228,11.1228,0,0,0-3.7069,5.8671,41.2454,41.2454,0,0,0-.5591,8.3522v11.2567h-3.9156Z"/><path class="c" d="M216.2614,230.7481a3.8491,3.8491,0,0,1-1.1545,2.8119,3.9161,3.9161,0,0,1-5.5748,0,3.9937,3.9937,0,0,1,0-5.6211,3.9225,3.9225,0,0,1,5.5748,0A3.843,3.843,0,0,1,216.2614,230.7481Zm-.5246,0a3.3562,3.3562,0,0,0-1-2.4525,3.38,3.38,0,0,0-4.8269,0,3.5112,3.5112,0,0,0,0,4.9086,3.3774,3.3774,0,0,0,4.8269,0A3.37,3.37,0,0,0,215.7367,230.7481ZM214.584,232.77h-1.0347l-1.2907-1.632h-.5591v1.632h-.7534v-4.2061h1.2725a5.4934,5.4934,0,0,1,.6771.0327,1.35,1.35,0,0,1,.5028.1788,1.0142,1.0142,0,0,1,.3976.3776,1.1552,1.1552,0,0,1,.1216.5655,1.1151,1.1151,0,0,1-.2523.7534,1.6819,1.6819,0,0,1-.659.4593Zm-1.4958-3.0016a.7269.7269,0,0,0-.0545-.2941.4848.4848,0,0,0-.1906-.2115.7.7,0,0,0-.256-.0989,2.198,2.198,0,0,0-.3649-.0254h-.5228v1.42h.4466a1.8584,1.8584,0,0,0,.41-.0436.6733.6733,0,0,0,.3086-.1489.6379.6379,0,0,0,.1725-.2433A1.0312,1.0312,0,0,0,213.0882,229.7687Z"/></svg>