<svg xmlns="http://www.w3.org/2000/svg" xmlns:xlink="http://www.w3.org/1999/xlink" viewBox="0 0 153.4978 35.1295"><defs><style>.a{fill:url(#a);}.b{fill:#424243;}.c{fill:#fff;}</style><linearGradient id="a" x1="120.1138" y1="-569.1332" x2="237.6238" y2="-569.1332" gradientTransform="translate(403.7196 486.9591) rotate(-59.9993)" gradientUnits="userSpaceOnUse"><stop offset="0" stop-color="#1b75bb"/><stop offset="0.8828" stop-color="#2c9dd8"/><stop offset="1" stop-color="#83d4f6"/></linearGradient></defs><title>facilitron-logo</title><path class="a" d="M4.3985,0h26.33a4.3992,4.3992,0,0,1,4.3992,4.3992V30.73a4.3991,4.3991,0,0,1-4.3991,4.3991H4.3995A4.3995,4.3995,0,0,1,0,30.73V4.3985A4.3985,4.3985,0,0,1,4.3985,0Z"/><path class="b" d="M45.95,18.246H43.4847V16.2765H45.95V14.774a4.7107,4.7107,0,0,1,1.3109-3.7573,4.4784,4.4784,0,0,1,2.9961-1.1212,6.8045,6.8045,0,0,1,2.0755.3031,4.8568,4.8568,0,0,1,1.3577.6059l.3744.3335-1.0922,1.5757a4.4438,4.4438,0,0,0-2.4345-.8184q-2.1846,0-2.1847,2.9395v1.4417H53.16v1.97H48.3223V31.0334H45.95Z"/><path class="b" d="M54.9233,18.2159a6.8824,6.8824,0,0,1,5.2276-2.2424,6.2629,6.2629,0,0,1,5.5554,2.8483V16.2765h2.372V31.0334h-2.372V28.5183a6.2352,6.2352,0,0,1-5.5554,2.8182,6.8824,6.8824,0,0,1-5.2276-2.2424A7.6353,7.6353,0,0,1,52.8166,23.67,7.6734,7.6734,0,0,1,54.9233,18.2159Zm1.8415,9.3176a5.0272,5.0272,0,0,0,3.7607,1.5606,4.9283,4.9283,0,0,0,3.6828-1.5453,5.3491,5.3491,0,0,0,1.498-3.8786,5.4465,5.4465,0,0,0-1.4824-3.8787,4.868,4.868,0,0,0-3.6984-1.5756,5.0025,5.0025,0,0,0-3.7607,1.5756A5.3842,5.3842,0,0,0,55.251,23.67,5.332,5.332,0,0,0,56.7648,27.5335Z"/><path class="b" d="M71.7638,18.2309a7.8433,7.8433,0,0,1,5.6491-2.2574,8.0774,8.0774,0,0,1,5.4617,2.03L81.3454,19.64a5.5683,5.5683,0,0,0-3.9014-1.424A5.4748,5.4748,0,0,0,73.48,19.7915a5.41,5.41,0,0,0,0,7.7269,5.5532,5.5532,0,0,0,4.0262,1.5757,5.7473,5.7473,0,0,0,4.3069-1.697l1.4045,1.697a8.1344,8.1344,0,0,1-5.8051,2.2424,7.8711,7.8711,0,0,1-5.6491-2.2424,7.4724,7.4724,0,0,1,0-10.8632Z"/><path class="b" d="M85.4326,11.5206a1.5605,1.5605,0,0,1,2.6685,1.0908,1.4565,1.4565,0,0,1-.4525,1.0605,1.5778,1.5778,0,0,1-2.216,0,1.4565,1.4565,0,0,1-.4525-1.0605A1.4909,1.4909,0,0,1,85.4326,11.5206Zm-.1092,4.7559h2.372V31.0334h-2.372Z"/><path class="b" d="M90.58,11.3993h2.372V31.0334H90.58Z"/><path class="b" d="M95.946,11.5206a1.5606,1.5606,0,0,1,2.6685,1.0908,1.4562,1.4562,0,0,1-.4526,1.0605,1.5777,1.5777,0,0,1-2.2159,0,1.4562,1.4562,0,0,1-.4526-1.0605A1.4906,1.4906,0,0,1,95.946,11.5206Zm-.1093,4.7559h2.372V31.0334h-2.372Z"/><path class="b" d="M102.4014,18.246H100.123V16.2765h2.2784V13.3083l2.3719.0169v2.9513h5.06v1.97h-5.06v7.9393q0,3.09,2.1536,3.0906a3.86,3.86,0,0,0,1.2483-.2122,5.4425,5.4425,0,0,0,.9363-.3937l.3121-.2122.78,1.7879a6.2463,6.2463,0,0,1-3.4956,1.0908,4.2352,4.2352,0,0,1-3.1522-1.1667,4.8758,4.8758,0,0,1-1.1547-3.56Z"/><path class="b" d="M111.9744,16.2765h2.372v3.1211a5.6722,5.6722,0,0,1,2.1847-2.47,6.7193,6.7193,0,0,1,3.6828-.9544v2.5454a6.1868,6.1868,0,0,0-4.2133,1.4391,5.7394,5.7394,0,0,0-1.6542,4.5607v6.5147h-2.372Z"/><path class="b" d="M122.4067,18.2309a8.1971,8.1971,0,0,1,11.2982,0,7.4548,7.4548,0,0,1,0,10.8481,8.1968,8.1968,0,0,1-11.2982,0,7.4548,7.4548,0,0,1,0-10.8481Zm1.7166,9.2724a5.656,5.656,0,0,0,7.865,0,5.3563,5.3563,0,0,0,0-7.6816,5.6181,5.6181,0,0,0-7.865,0,5.3563,5.3563,0,0,0,0,7.6816Z"/><path class="b" d="M137.5423,16.2765h2.372V18.64a5.7465,5.7465,0,0,1,5.1808-2.6665,5.2862,5.2862,0,0,1,4.1822,1.5907,6.5307,6.5307,0,0,1,1.4045,4.47v9H148.31V22.3976a4.75,4.75,0,0,0-.8895-3.1213,3.6533,3.6533,0,0,0-2.9494-1.06,4.48,4.48,0,0,0-3.2147,1.2876,4.3226,4.3226,0,0,0-1.3419,3.2577v8.2722h-2.372Z"/><path class="c" d="M11.7531,30.74a7.2639,7.2639,0,1,1,.0181-14.5277h3.88V11.6443a7.2639,7.2639,0,1,1,14.5277,0H26.8138a3.8981,3.8981,0,0,0-7.7962,0v4.5678h9.1507v3.3667H19.0176l0,3.8969A7.2723,7.2723,0,0,1,11.7531,30.74Zm.0181-11.161a3.8976,3.8976,0,1,0,3.88,3.8969V19.5788Z"/><path class="b" d="M152.9012,15.4365a2.0365,2.0365,0,0,1-2.8772-2.8829,2.0365,2.0365,0,0,1,2.8772,2.8829Zm-2.68-2.6832a1.6951,1.6951,0,0,0-.5106,1.24,1.715,1.715,0,0,0,.5078,1.2486,1.7483,1.7483,0,0,0,2.4805,0,1.7722,1.7722,0,0,0,0-2.489,1.7456,1.7456,0,0,0-2.4777,0Zm1.1986.1139a1.7069,1.7069,0,0,1,.61.0806.5549.5549,0,0,1,.3468.5666.4888.4888,0,0,1-.2181.4415.8474.8474,0,0,1-.3232.1084.541.541,0,0,1,.3837.219.613.613,0,0,1,.1215.3462v.1636q0,.0777.0056.1664a.3623.3623,0,0,0,.0194.1163l.0139.0277h-.369l-.0056-.0221L152,15.0565l-.0084-.0719v-.177a.5461.5461,0,0,0-.2108-.5116.9465.9465,0,0,0-.4384-.0719h-.3108v.8794h-.394V12.8672Zm.4254.3523a1.0257,1.0257,0,0,0-.4772-.083h-.3367v.81h.3563a1.07,1.07,0,0,0,.3756-.05.4025.4025,0,0,0,.082-.677Z"/></svg>