<svg xmlns="http://www.w3.org/2000/svg" viewBox="0 0 415.0104 90.0558"><defs><style>.a{fill:#434344;}.b{fill:#57a0d7;}.c{fill:#fff;}</style></defs><title>facilitron-logo</title><path class="a" d="M140.6993,29.0519v5.3376A13.2945,13.2945,0,0,0,135.6,33.1034a4.928,4.928,0,0,0-2.6274.6431,2.838,2.838,0,0,0-1.3137,1.48,20.6533,20.6533,0,0,0-.2708,4.4626l-.0038,5.7274h8.7735v4.7145h-8.7773L131.35,87.81h-5.409V50.1314h-5.5243V45.4168h5.5243V38.7932a18.1174,18.1174,0,0,1,.83-6.5071,6.6729,6.6729,0,0,1,2.82-3.1376,9.228,9.228,0,0,1,4.81-1.1884A22.699,22.699,0,0,1,140.6993,29.0519Z"/><path class="a" d="M184.1769,45.4168V87.81h-5.3313V80.5246a23.2537,23.2537,0,0,1-7.63,6.2727,21.1777,21.1777,0,0,1-24.4928-4.4225,21.9776,21.9776,0,0,1-6.3166-15.8773A21.5771,21.5771,0,0,1,146.78,50.8334a20.7,20.7,0,0,1,15.337-6.5071,19.7027,19.7027,0,0,1,9.3689,2.22,21.404,21.404,0,0,1,7.36,6.6638V45.4168Zm-21.616,4.168a16.2888,16.2888,0,0,0-14.4119,8.524,17.3053,17.3053,0,0,0,.0188,17.1258,16.6413,16.6413,0,0,0,6.116,6.3629,15.8676,15.8676,0,0,0,8.2395,2.2764,16.7839,16.7839,0,0,0,8.4125-2.2564,15.7354,15.7354,0,0,0,6.116-6.11,17.5781,17.5781,0,0,0,2.141-8.6795,16.9528,16.9528,0,0,0-4.8035-12.3A15.8545,15.8545,0,0,0,162.561,49.5848Z"/><path class="a" d="M231.2071,54.2229,226.92,56.9105a17.9106,17.9106,0,0,0-15.1653-7.441,17.4625,17.4625,0,0,0-12.7535,4.9815,16.3315,16.3315,0,0,0-5.0743,12.1041,17.2815,17.2815,0,0,0,2.3353,8.7171,16.4209,16.4209,0,0,0,6.4056,6.3454A19.2585,19.2585,0,0,0,226.92,76.4331l4.2871,2.843a20.2994,20.2994,0,0,1-8.0928,7.1025,25.665,25.665,0,0,1-11.57,2.5221A22.7443,22.7443,0,0,1,195.0087,82.51a20.8718,20.8718,0,0,1-6.5673-15.5463,22.3529,22.3529,0,0,1,3.0712-11.4347,21.7408,21.7408,0,0,1,8.4413-8.2432,24.4717,24.4717,0,0,1,12.0139-2.96,25.4387,25.4387,0,0,1,8.0552,1.2849,22.3314,22.3314,0,0,1,6.5886,3.352A18.1425,18.1425,0,0,1,231.2071,54.2229Z"/><path class="a" d="M239.518,27.96a4.27,4.27,0,0,1,3.1539,1.325,4.382,4.382,0,0,1,1.3087,3.1953,4.3352,4.3352,0,0,1-1.3087,3.1564,4.3714,4.3714,0,0,1-6.27,0,4.3427,4.3427,0,0,1-1.3062-3.1564,4.39,4.39,0,0,1,1.3062-3.1953A4.2315,4.2315,0,0,1,239.518,27.96Zm-2.6851,17.4567h5.41V87.81h-5.41Z"/><path class="a" d="M250.6945,29.0519h5.41V87.81h-5.41Z"/><path class="a" d="M267.2412,27.96a4.27,4.27,0,0,1,3.1539,1.325,4.382,4.382,0,0,1,1.3087,3.1953,4.3352,4.3352,0,0,1-1.3087,3.1564,4.3714,4.3714,0,0,1-6.27,0,4.3427,4.3427,0,0,1-1.3062-3.1564,4.39,4.39,0,0,1,1.3062-3.1953A4.2315,4.2315,0,0,1,267.2412,27.96Zm-2.6851,17.4567h5.41V87.81h-5.41Z"/><path class="a" d="M281.9652,29.6749h5.4078V45.4168H295.95v4.7145H287.373V87.81h-5.4078V50.1314h-7.3783V45.4168h7.3783Z"/><path class="a" d="M300.0362,45.4168h5.5256v6.1962a19.4925,19.4925,0,0,1,5.2147-5.4754,10.2161,10.2161,0,0,1,5.7186-1.8114,9.7991,9.7991,0,0,1,4.7885,1.4416l-2.8179,4.5967a7.5276,7.5276,0,0,0-2.8606-.74,7.7847,7.7847,0,0,0-5.2147,2.2413,14.2046,14.2046,0,0,0-3.8258,6.9546q-1.0041,3.6215-1.0028,14.6513V87.81h-5.5256Z"/><path class="a" d="M339.45,44.3263a20.7406,20.7406,0,0,1,16.1,7.0912,22.9052,22.9052,0,0,1-.3309,30.8395,22.0846,22.0846,0,0,1-31.5791,0,22.8532,22.8532,0,0,1-.3284-30.8019A20.7256,20.7256,0,0,1,339.45,44.3263Zm-.02,5.3388a15.5464,15.5464,0,0,0-11.5927,5.0242,16.885,16.885,0,0,0-4.8462,12.1568,17.3535,17.3535,0,0,0,2.2112,8.5742,15.729,15.729,0,0,0,5.9693,6.1373,16.8594,16.8594,0,0,0,16.5166,0,15.729,15.729,0,0,0,5.9693-6.1373,17.3535,17.3535,0,0,0,2.2112-8.5742,16.8413,16.8413,0,0,0-4.8662-12.1568A15.5624,15.5624,0,0,0,339.43,49.6651Z"/><path class="a" d="M366.6114,45.4168h5.4078v7.5977a22.7065,22.7065,0,0,1,7.1853-6.5259,17.5458,17.5458,0,0,1,8.5767-2.1623,14.811,14.811,0,0,1,8.3661,2.4156,14.3571,14.3571,0,0,1,5.3877,6.5058q1.7374,4.0915,1.74,12.7434V87.81h-5.41V67.5881a50.2568,50.2568,0,0,0-.6017-9.78,9.85,9.85,0,0,0-10.56-8.4563,13.2718,13.2718,0,0,0-8.7923,3.2742,15.3614,15.3614,0,0,0-5.1194,8.1029q-.7709,3.1589-.7722,11.535V87.81h-5.4078Z"/><path class="a" d="M415.01,47.5366a5.3159,5.3159,0,0,1-1.5945,3.8835,5.4084,5.4084,0,0,1-7.6992,0,5.5156,5.5156,0,0,1,0-7.7631,5.4173,5.4173,0,0,1,7.6992,0A5.3075,5.3075,0,0,1,415.01,47.5366Zm-.7245,0a4.6351,4.6351,0,0,0-1.3814-3.3871,4.6674,4.6674,0,0,0-6.6663,0,4.8492,4.8492,0,0,0,0,6.7791,4.6644,4.6644,0,0,0,6.6663,0A4.6545,4.6545,0,0,0,414.2859,47.5366Zm-1.592,2.7929h-1.429l-1.7825-2.2539H408.71v2.2539h-1.04V44.5206h1.7575a7.5867,7.5867,0,0,1,.9351.0451,1.8651,1.8651,0,0,1,.6945.2469,1.4006,1.4006,0,0,1,.549.5215,1.5954,1.5954,0,0,1,.168.781,1.54,1.54,0,0,1-.3485,1.04,2.3228,2.3228,0,0,1-.91.6343Zm-2.0658-4.1454a1.0039,1.0039,0,0,0-.0752-.4061.67.67,0,0,0-.2632-.2921.9674.9674,0,0,0-.3535-.1366,3.0356,3.0356,0,0,0-.5039-.0351h-.722v1.9618h.6167a2.5665,2.5665,0,0,0,.5666-.06.93.93,0,0,0,.4262-.2056.881.881,0,0,0,.2382-.3359A1.4241,1.4241,0,0,0,410.6281,46.184Z"/><rect class="b" width="90.0543" height="90.0558" rx="5.3476" ry="5.3476"/><path class="c" d="M59.3522,8.5117c-9.397-.0694-18.3027,9.1094-18.3351,21.0988h0v12.698H32.909c-10.7743,0-17.7526,9.0771-17.7526,21.1015S23.6638,84.4518,33.081,84.4518s16.907-9.0174,16.907-21.0418h.0151V51.6825H66.8259v-9.374H50.0032V29.61h-.0091c.0327-6.4413,4.1415-11.6712,9.1938-11.6712,5.0727,0,8.2372,5.27,8.2372,11.7468h9.4412C76.8663,15.7637,68.7825,8.5814,59.3522,8.5117ZM41.154,63.41c0,6.6748-3.1723,11.7468-8.2449,11.7468S24.324,69.72,24.324,63.2433s3.2839-11.58,9.8517-11.58l-1.2667.0193H41.154Z"/></svg>