<?xml version="1.0" encoding="UTF-8"?>
<svg width="150px" height="150px" viewBox="0 0 150 150" version="1.1" xmlns="http://www.w3.org/2000/svg" xmlns:xlink="http://www.w3.org/1999/xlink">
    <!-- Generator: Sketch 47.1 (45422) - http://www.bohemiancoding.com/sketch -->
    <title>list</title>
    <desc>Created with Sketch.</desc>
    <defs></defs>
    <g id="Page-1" stroke="none" stroke-width="1" fill="none" fill-rule="evenodd">
        <g id="list" fill-rule="nonzero" fill="#269AD5">
            <g id="Group">
                <g id="Shape">
                    <path d="M6.4453125,0 L143.554688,0 C147.104312,0 150,2.88566483 150,6.4453125 L150,143.554688 C150,147.104312 147.114335,150 143.554688,150 L6.4453125,150 C2.89568845,150 0,147.114335 0,143.554688 L0,6.4453125 C0,2.89568845 2.88566483,0 6.4453125,0 Z M48.4913793,80.1724138 L126.077586,80.1724138 C128.934231,80.1724138 131.25,77.8566453 131.25,75 C131.25,72.1433547 128.934231,69.8275862 126.077586,69.8275862 L48.4913793,69.8275862 C45.6347341,69.8275862 43.3189655,72.1433547 43.3189655,75 C43.3189655,77.8566453 45.6347341,80.1724138 48.4913793,80.1724138 Z M48.4913793,111.206897 L126.077586,111.206897 C128.934231,111.206897 131.25,108.891128 131.25,106.034483 C131.25,103.177838 128.934231,100.862069 126.077586,100.862069 L48.4913793,100.862069 C45.6347341,100.862069 43.3189655,103.177838 43.3189655,106.034483 C43.3189655,108.891128 45.6347341,111.206897 48.4913793,111.206897 Z M48.4913793,49.137931 L126.077586,49.137931 C128.934231,49.137931 131.25,46.8221625 131.25,43.9655172 C131.25,41.108872 128.934231,38.7931034 126.077586,38.7931034 L48.4913793,38.7931034 C45.6347341,38.7931034 43.3189655,41.108872 43.3189655,43.9655172 C43.3189655,46.8221625 45.6347341,49.137931 48.4913793,49.137931 Z M18.75,75 C18.75,79.2849678 22.2323718,82.7586207 26.5086207,82.7586207 C30.7935884,82.7586207 34.2672414,79.2762489 34.2672414,75 C34.2672414,70.7150322 30.7848696,67.2413793 26.5086207,67.2413793 C22.2236529,67.2413793 18.75,70.7237511 18.75,75 Z M18.75,106.034483 C18.75,110.319451 22.2323718,113.793103 26.5086207,113.793103 C30.7935884,113.793103 34.2672414,110.310732 34.2672414,106.034483 C34.2672414,101.749515 30.7848696,98.2758621 26.5086207,98.2758621 C22.2236529,98.2758621 18.75,101.758234 18.75,106.034483 Z M18.75,43.9655172 C18.75,48.250485 22.2323718,51.7241379 26.5086207,51.7241379 C30.7935884,51.7241379 34.2672414,48.2417661 34.2672414,43.9655172 C34.2672414,39.6805495 30.7848696,36.2068966 26.5086207,36.2068966 C22.2236529,36.2068966 18.75,39.6892684 18.75,43.9655172 Z"></path>
                </g>
            </g>
        </g>
    </g>
</svg>