<?xml version="1.0" encoding="UTF-8"?>
<svg width="150px" height="147px" viewBox="0 0 150 147" version="1.1" xmlns="http://www.w3.org/2000/svg" xmlns:xlink="http://www.w3.org/1999/xlink">
    <!-- Generator: Sketch 47.1 (45422) - http://www.bohemiancoding.com/sketch -->
    <title>manage</title>
    <desc>Created with Sketch.</desc>
    <defs></defs>
    <g id="Page-1" stroke="none" stroke-width="1" fill="none" fill-rule="evenodd">
        <g id="manage" fill-rule="nonzero" fill="#269AD5">
            <path d="M125.375,12.5 L118.75,12.5 L118.75,21.875 C118.828389,22.6605653 118.576689,23.4433642 118.055145,24.0360276 C117.533601,24.6286909 116.789157,24.977875 116,25 L91,25 C89.1989156,25.0250768 87.6783286,23.6674097 87.5,21.875 L87.5,12.5 L50,12.5 L50,21.875 C50.0783892,22.6605653 49.8266887,23.4433642 49.3051449,24.0360276 C48.7836012,24.6286909 48.0391567,24.977875 47.25,25 L22.25,25 C20.4489156,25.0250768 18.9283286,23.6674097 18.75,21.875 L18.75,12.5 L12.875,12.5 C5.89484432,12.4638758 0.170156504,18.0218251 1.42108547e-14,25 L1.42108547e-14,37.5 L137.5,37.5 L137.5,25 C137.584048,21.7246889 136.345809,18.5534811 134.064597,16.2017161 C131.783385,13.8499512 128.651352,12.5157238 125.375,12.5 L125.375,12.5 Z" id="Shape"></path>
            <rect id="Rectangle-path" x="25" y="0" width="18.75" height="18.75" rx="1"></rect>
            <rect id="Rectangle-path" x="93.75" y="0" width="18.75" height="18.75" rx="1"></rect>
            <path d="M78.5,118.75 C78.4997618,96.3864518 96.57419,78.2282164 118.9375,78.125 C125.397505,78.1961199 131.752432,79.7688039 137.5,82.71875 L137.5,43.75 L0,43.75 L0,125 C0.170156504,131.978175 5.89484432,137.536124 12.875,137.5 L83.09375,137.5 C80.0700584,131.712959 78.4938259,125.279358 78.5,118.75 Z" id="Shape"></path>
            <path d="M120.4375,103.4375 C128.031415,103.4375 134.1875,109.593585 134.1875,117.1875 C134.1875,124.781415 128.031415,130.9375 120.4375,130.9375 C112.843585,130.9375 106.6875,124.781415 106.6875,117.1875 C106.6875,109.593585 112.843585,103.4375 120.4375,103.4375 L120.4375,103.4375 Z M120.4375,94.28125 C107.786727,94.28125 97.53125,104.536727 97.53125,117.1875 C97.53125,129.838273 107.786727,140.09375 120.4375,140.09375 C133.088273,140.09375 143.34375,129.838273 143.34375,117.1875 C143.34375,104.536727 133.088273,94.28125 120.4375,94.28125 L120.4375,94.28125 Z" id="Shape"></path>
            <rect id="Rectangle-path" x="115.6875" y="87.5" width="9.53125" height="9.53125"></rect>
            <rect id="Rectangle-path" transform="translate(102.787463, 99.452666) rotate(-45.000000) translate(-102.787463, -99.452666) " x="98.0218385" y="94.6870414" width="9.53125" height="9.53125"></rect>
            <rect id="Rectangle-path" transform="translate(95.390625, 117.046875) rotate(-90.000000) translate(-95.390625, -117.046875) " x="90.625" y="112.28125" width="9.53125" height="9.53125"></rect>
            <rect id="Rectangle-path" transform="translate(102.595360, 134.710008) rotate(-135.000000) translate(-102.595360, -134.710008) " x="97.829735" y="129.944383" width="9.53125" height="9.53125"></rect>
            <rect id="Rectangle-path" transform="translate(120.203125, 142.109375) rotate(-180.000000) translate(-120.203125, -142.109375) " x="115.4375" y="137.34375" width="9.53125" height="9.53125"></rect>
            <rect id="Rectangle-path" transform="translate(137.839411, 134.916321) rotate(135.000000) translate(-137.839411, -134.916321) " x="133.073786" y="130.150696" width="9.53125" height="9.53125"></rect>
            <rect id="Rectangle-path" transform="translate(145.234375, 117.296875) rotate(90.000000) translate(-145.234375, -117.296875) " x="140.46875" y="112.53125" width="9.53125" height="9.53125"></rect>
            <rect id="Rectangle-path" transform="translate(138.059015, 99.658060) rotate(45.000000) translate(-138.059015, -99.658060) " x="133.29339" y="94.892435" width="9.53125" height="9.53125"></rect>
        </g>
    </g>
</svg>