<?xml version="1.0" encoding="UTF-8"?>
<svg width="150px" height="138px" viewBox="0 0 150 138" version="1.1" xmlns="http://www.w3.org/2000/svg" xmlns:xlink="http://www.w3.org/1999/xlink">
    <!-- Generator: Sketch 47.1 (45422) - http://www.bohemiancoding.com/sketch -->
    <title>rent</title>
    <desc>Created with Sketch.</desc>
    <defs></defs>
    <g id="Page-1" stroke="none" stroke-width="1" fill="none" fill-rule="evenodd">
        <path d="M150,126.606586 L150,38.6964735 L0,38.6964735 L0,126.606586 C0,132.404339 4.71910112,137.056024 10.4494382,137.056024 L139.483146,137.056024 C145.213483,137.056024 150,132.336923 150,126.606586 Z M103.213483,4.04478814 L103.213483,16.9211926 C103.213483,22.2470353 111.303371,22.2470353 111.303371,16.9211926 L111.303371,4.04478814 C111.303371,2.89872072 110.831461,1.88748477 110.089888,1.21332747 C107.52809,-1.34847029 103.213483,0.471754432 103.213483,4.04478814 Z M46.7865169,16.9211926 L46.7865169,4.04478814 C46.7865169,2.89872072 46.3146067,1.88748477 45.5730337,1.21332747 C43.011236,-1.34847029 38.6966292,0.471754432 38.6966292,4.04478814 L38.6966292,16.9211926 C38.6966292,22.2470353 46.7865169,22.2470353 46.7865169,16.9211926 Z M0,33.8425409 L150,33.8425409 L150,23.3931027 C150,17.6627657 145.280899,12.8762488 139.483146,12.8762488 L116.089888,12.8762488 C116.089888,16.8537769 116.561798,20.089732 113.52809,23.1908556 C107.865169,28.7863612 98.3595506,24.7414174 98.3595506,16.9211926 L98.3595506,12.8762488 L51.5730337,12.8762488 C51.5730337,16.8537769 52.0449438,20.089732 49.011236,23.1908556 C43.4157303,28.7863612 33.8426966,24.7414174 33.8426966,16.9211926 L33.8426966,12.8762488 L10.4494382,12.8762488 C4.71910112,12.8762488 9.35581201e-15,17.5953499 9.35581201e-15,23.3931027 L0,33.8425409 Z M83.1235955,95.1908556 C86.1573034,91.9549005 88.0449438,87.572878 88.0449438,82.7189454 C88.0449438,66.5391702 68.3595506,58.4492825 56.8988764,69.8425409 C45.505618,81.3032151 53.5955056,100.921193 69.8426966,100.921193 C74.6292135,100.921193 79.0786517,99.1009679 82.3146067,95.9998443 L83.1235955,95.1908556 Z M86.0898876,66.4043387 C94.4494382,74.7638893 95.1910112,88.0447881 87.7752809,97.2133275 L102.539326,111.977372 C104.764045,114.202092 101.325843,117.640294 99.1011236,115.415575 L84.3370787,100.65153 C69.3033708,112.853777 46.7191011,102.06726 46.7191011,82.7189454 C46.7191011,62.2919792 71.5955056,51.9099567 86.0898876,66.4043387 L86.0898876,66.4043387 Z" id="rent" fill="#269AD5"></path>
    </g>
</svg>